<svg width="24" height="24" viewBox="0 0 24 24" fill="none" xmlns="http://www.w3.org/2000/svg">
<path fill-rule="evenodd" clip-rule="evenodd" d="M0.655151 4.05887C0.655151 2.17918 2.17894 0.655396 4.05863 0.655396H19.9415C21.8211 0.655396 23.345 2.17918 23.345 4.05887V19.9417C23.345 21.8214 21.8211 23.3452 19.9415 23.3452H4.05863C2.17894 23.3452 0.655151 21.8214 0.655151 19.9417V4.05887ZM9.73108 7.08418C9.73108 6.45762 9.22313 5.94969 8.59659 5.94969C7.97003 5.94969 7.4621 6.45762 7.4621 7.08418V16.9164C7.4621 17.543 7.97003 18.0509 8.59659 18.0509C9.22313 18.0509 9.73108 17.543 9.73108 16.9164V13.1348H14.269V16.9164C14.269 17.543 14.777 18.0509 15.4035 18.0509C16.0301 18.0509 16.538 17.543 16.538 16.9164V7.08418C16.538 6.45762 16.0301 5.94969 15.4035 5.94969C14.777 5.94969 14.269 6.45762 14.269 7.08418V10.8658H9.73108V7.08418Z" fill="white"/>
</svg>
