<svg width="24" height="21" viewBox="0 0 24 21" fill="none" xmlns="http://www.w3.org/2000/svg">
<path d="M20.7737 13.7849L21.8708 13.2243C22.0599 13.1299 22.1512 12.9109 22.085 12.7101L21.7062 11.5389C21.6222 11.2817 21.6222 11.0045 21.7062 10.7474L22.0855 9.57572C22.1504 9.37492 22.0595 9.15674 21.8712 9.06147L20.775 8.50137C20.534 8.37866 20.338 8.18272 20.2153 7.9417L19.6548 6.84464C19.5606 6.65519 19.3414 6.56387 19.1405 6.63038L17.9693 7.00919C17.7123 7.0932 17.4352 7.0932 17.1782 7.00919L16.0066 6.62995C15.8058 6.56502 15.5876 6.6559 15.4924 6.84421L14.9323 7.94041C14.8095 8.18144 14.6136 8.37738 14.3726 8.50008L13.2755 9.06061C13.0864 9.15507 12.9951 9.37401 13.0613 9.57486L13.4401 10.7461C13.5241 11.0032 13.5241 11.2804 13.4401 11.5376L13.0604 12.7092C12.9955 12.91 13.0864 13.1282 13.2747 13.2235L14.3709 13.7836C14.6119 13.9063 14.8078 14.1022 14.9305 14.3433L15.4911 15.4403C15.5853 15.6298 15.8045 15.7211 16.0053 15.6546L17.1765 15.2758C17.4337 15.1918 17.7109 15.1918 17.9681 15.2758L19.1397 15.655C19.3405 15.7199 19.5587 15.629 19.6539 15.4407L20.214 14.3445C20.3367 14.1035 20.5327 13.9076 20.7737 13.7849ZM17.5704 14.5703C15.6769 14.5703 14.142 13.0354 14.142 11.142C14.1441 9.24944 15.6778 7.7158 17.5704 7.71365C19.4638 7.71365 20.9987 9.24858 20.9987 11.142C20.9987 13.0355 19.4638 14.5703 17.5704 14.5703Z" fill="white"/>
<path d="M9.64235 14.9989H2.35718C2.00218 14.9989 1.71436 15.2867 1.71436 15.6417C1.71436 15.9967 2.00213 16.2846 2.35718 16.2846H9.64239C9.99739 16.2846 10.2852 15.9968 10.2852 15.6417C10.2852 15.2867 9.99739 14.9989 9.64235 14.9989Z" fill="white"/>
<path d="M23.6229 0.375946C23.3814 0.134778 23.0539 -0.000475829 22.7127 1.25786e-06H1.28561C0.575605 1.25786e-06 0 0.575607 0 1.28561V16.7131C0 17.4231 0.575605 17.9987 1.28561 17.9987H14.9989V16.1894C14.8875 16.0863 14.7951 15.9645 14.726 15.8294L14.1663 14.7323C14.1248 14.6522 14.0594 14.587 13.979 14.546L12.8833 13.9863C12.3193 13.7007 12.0482 13.0464 12.2447 12.4457L12.624 11.274C12.6518 11.1883 12.6518 11.0958 12.624 11.0101L12.2452 9.83887C12.0471 9.2376 12.3183 8.58184 12.8833 8.29611L13.9799 7.73644C14.06 7.69498 14.1252 7.62953 14.1663 7.54919L14.726 6.45341C15.0118 5.88978 15.6658 5.6187 16.2666 5.81488L17.4382 6.19412C17.524 6.22188 17.6164 6.22188 17.7022 6.19412L18.8734 5.81531C19.4746 5.61803 20.1299 5.88907 20.4161 6.45341L20.9758 7.55004C21.0173 7.63019 21.0827 7.69537 21.163 7.73644L22.2588 8.29611C22.8227 8.58165 23.0939 9.23597 22.8974 9.83672L22.5181 11.0084C22.4904 11.0941 22.4904 11.1865 22.5181 11.2723L22.8969 12.4435C23.0949 13.0447 22.8239 13.7003 22.2593 13.9863L21.1622 14.546C21.082 14.5874 21.0169 14.6529 20.9758 14.7332L20.4161 15.829C20.3467 15.9631 20.2543 16.0841 20.1431 16.1864V17.9987H22.7144C23.4244 17.9987 24 17.4231 24 16.7131V1.28561C24 0.944347 23.8643 0.617065 23.6229 0.375946ZM6.85664 4.28539C5.90991 4.28539 5.14247 3.51794 5.14247 2.57121C5.14247 1.62448 5.90991 0.85704 6.85664 0.85704C7.80338 0.85704 8.57082 1.62448 8.57082 2.57121C8.57082 2.8079 8.37893 2.99973 8.1423 2.99973C7.90566 2.99973 7.71378 2.80785 7.71378 2.57121C7.7143 2.34388 7.62409 2.12576 7.46307 1.96527C7.12372 1.64175 6.5901 1.64175 6.25074 1.96527C6.00571 2.21039 5.93238 2.57899 6.06501 2.89921C6.19765 3.21943 6.51009 3.42825 6.85669 3.42835C7.80342 3.42835 8.57087 4.19579 8.57087 5.14252C8.57087 6.08925 7.80342 6.85669 6.85669 6.85669C5.90996 6.85669 5.14252 6.08925 5.14252 5.14252C5.14252 4.90584 5.3344 4.714 5.57104 4.714C5.80767 4.714 5.99956 4.90589 5.99956 5.14252C5.99956 5.61589 6.38328 5.99961 6.85664 5.99961C7.33001 5.99961 7.71373 5.61589 7.71373 5.14252C7.71373 4.66915 7.33001 4.28539 6.85664 4.28539ZM2.57126 4.28539C1.62458 4.28539 0.857087 3.51794 0.857087 2.57121C0.857087 1.62448 1.62453 0.85704 2.57126 0.85704C3.51799 0.85704 4.28543 1.62448 4.28543 2.57121C4.28543 2.8079 4.09355 2.99973 3.85691 2.99973C3.62028 2.99973 3.42839 2.80785 3.42839 2.57121C3.42892 2.34388 3.3387 2.12576 3.17769 1.96527C2.83833 1.64175 2.30471 1.64175 1.96536 1.96527C1.72033 2.21039 1.647 2.57899 1.77963 2.89921C1.91226 3.21943 2.2247 3.42825 2.57131 3.42835C3.51804 3.42835 4.28548 4.19579 4.28548 5.14252C4.28548 6.08925 3.51804 6.85669 2.57131 6.85669C1.62462 6.85669 0.857134 6.08925 0.857134 5.14252C0.857134 4.90584 1.04902 4.714 1.28565 4.714C1.52229 4.714 1.71417 4.90589 1.71417 5.14252C1.71417 5.61589 2.09789 5.99961 2.57126 5.99961C3.04463 5.99961 3.42835 5.61589 3.42835 5.14252C3.42835 4.66915 3.04458 4.28539 2.57126 4.28539ZM1.28561 7.71373H2.57121C2.8079 7.71373 2.99973 7.90562 2.99973 8.14225C2.99973 8.37889 2.80785 8.57077 2.57121 8.57077H1.28561C1.04892 8.57077 0.857087 8.37889 0.857087 8.14225C0.857087 7.90562 1.04897 7.71373 1.28561 7.71373ZM1.28561 9.85642H7.71373C7.95041 9.85642 8.14225 10.0483 8.14225 10.2849C8.14225 10.5216 7.95037 10.7135 7.71373 10.7135H1.28561C1.04892 10.7135 0.857087 10.5216 0.857087 10.2849C0.857087 10.0483 1.04897 9.85642 1.28561 9.85642ZM9.64216 17.1416H2.357C1.52863 17.1416 0.857087 16.4701 0.857087 15.6417C0.857087 14.8134 1.52863 14.1418 2.357 14.1418H9.64221C10.4706 14.1418 11.1421 14.8134 11.1421 15.6417C11.1421 16.4701 10.4705 17.1416 9.64216 17.1416ZM10.7135 12.8563H1.28561C1.04892 12.8563 0.857087 12.6644 0.857087 12.4277C0.857087 12.1911 1.04897 11.9992 1.28561 11.9992H10.7135C10.9502 11.9992 11.142 12.1911 11.142 12.4277C11.1421 12.6644 10.9502 12.8563 10.7135 12.8563ZM10.7135 10.7135H9.42791C9.19122 10.7135 8.99939 10.5216 8.99939 10.285C8.99939 10.0484 9.19127 9.85647 9.42791 9.85647H10.7135C10.9502 9.85647 11.142 10.0484 11.142 10.285C11.142 10.5216 10.9502 10.7135 10.7135 10.7135ZM10.7135 8.57082H4.28543C4.04875 8.57082 3.85691 8.37893 3.85691 8.1423C3.85691 7.90566 4.0488 7.71378 4.28543 7.71378H10.7136C10.9502 7.71378 11.1421 7.90566 11.1421 8.1423C11.1421 8.37893 10.9502 8.57082 10.7135 8.57082ZM12.4277 6.85665H10.285C9.81163 6.85665 9.42791 6.47293 9.42791 5.99956V1.28561C9.42791 1.04892 9.61979 0.857088 9.85642 0.857088C10.0931 0.857088 10.2849 1.04897 10.2849 1.28561V5.99956H12.4276C12.6643 5.99956 12.8562 6.19144 12.8562 6.42808C12.8562 6.66471 12.6644 6.85665 12.4277 6.85665Z" fill="white"/>
<path d="M18.8737 16.4668L17.7021 16.0883C17.6163 16.0606 17.5239 16.0606 17.4381 16.0883L16.2669 16.4671C16.1341 16.5094 15.9953 16.5298 15.856 16.5276V20.6703L17.3494 19.7742C17.3669 19.7665 17.385 19.7601 17.4034 19.7549C17.4545 19.7275 17.5124 19.7154 17.5701 19.7202C17.5975 19.7188 17.6249 19.7202 17.652 19.7245C17.6816 19.7314 17.7103 19.7415 17.7377 19.7545C17.7564 19.7597 17.7748 19.7662 17.7925 19.7742L19.2843 20.6703V16.5301H19.2731C19.1375 16.5298 19.0028 16.5085 18.8737 16.4668Z" fill="white"/>
<path d="M17.5703 13.7133C18.9904 13.7133 20.1415 12.5621 20.1415 11.1421C20.1415 9.72199 18.9904 8.5708 17.5703 8.5708C16.1502 8.5708 14.999 9.72199 14.999 11.1421C14.999 12.5621 16.1502 13.7133 17.5703 13.7133Z" fill="white"/>
</svg>
