<svg width="21" height="21" viewBox="0 0 21 21" fill="none" xmlns="http://www.w3.org/2000/svg">
<path d="M16.9706 9.6731H3.79264C1.69799 9.6731 0 11.3728 0 13.467V16.5154C0 18.6096 1.69799 20.3089 3.79264 20.3089H16.9706C19.0648 20.3089 20.7632 18.6096 20.7632 16.5154V13.467C20.7632 11.3728 19.0648 9.6731 16.9706 9.6731ZM6.56123 12.0463H5.33611V18.1338H4.15247V12.0463H2.92819V11.0108H6.56123V12.0463ZM10.022 18.1338H8.97211V17.5581C8.77696 17.771 8.57587 17.9336 8.3659 18.0432C8.15593 18.1575 7.95315 18.2109 7.75588 18.2109C7.51204 18.2109 7.33085 18.1334 7.20682 17.9759C7.0849 17.8189 7.02267 17.586 7.02267 17.2715V12.8786H8.07253V16.91C8.07253 17.0344 8.09581 17.1238 8.13772 17.1792C8.18302 17.2364 8.25499 17.2626 8.35362 17.2626C8.42982 17.2626 8.52804 17.2262 8.64615 17.1525C8.7651 17.078 8.87348 16.9849 8.97211 16.8698V12.8781H10.022V18.1338ZM13.8337 17.0488C13.8337 17.4201 13.7511 17.7054 13.5864 17.9044C13.4226 18.1033 13.183 18.2011 12.8727 18.2011C12.6661 18.2011 12.4824 18.1639 12.3228 18.0868C12.1623 18.0106 12.0112 17.8934 11.8736 17.7308V18.1334H10.8111V11.0108H11.8736V13.3049C12.0159 13.1461 12.1662 13.0229 12.3232 12.9404C12.4837 12.8561 12.6449 12.8155 12.8084 12.8155C13.1407 12.8155 13.3938 12.9264 13.5691 13.1504C13.7452 13.3743 13.8328 13.7024 13.8328 14.1325V17.0488H13.8337ZM17.4756 15.6328H15.4665V16.6229C15.4665 16.899 15.5003 17.0912 15.5689 17.1983C15.6392 17.3058 15.7573 17.3583 15.9254 17.3583C16.0998 17.3583 16.2204 17.313 16.2907 17.2224C16.3584 17.1309 16.3948 16.932 16.3948 16.6229V16.3838H17.4756V16.6534C17.4756 17.1919 17.3448 17.5979 17.0794 17.8718C16.8182 18.1431 16.4245 18.2778 15.9012 18.2778C15.4301 18.2778 15.0588 18.1342 14.7891 17.8455C14.5203 17.5585 14.3832 17.1602 14.3832 16.6539V14.2933C14.3832 13.8391 14.533 13.4653 14.8306 13.1787C15.1274 12.8921 15.5096 12.749 15.98 12.749C16.4613 12.749 16.8309 12.8815 17.0887 13.1474C17.3465 13.4137 17.4756 13.7947 17.4756 14.2929V15.6328Z" fill="white"/>
<path d="M15.9354 13.6677C15.7677 13.6677 15.6483 13.7147 15.5755 13.8129C15.501 13.9052 15.4663 14.0631 15.4663 14.2837V14.815H16.3947V14.2837C16.3947 14.0631 16.3574 13.9048 16.2838 13.8129C16.2131 13.7151 16.095 13.6677 15.9354 13.6677Z" fill="white"/>
<path d="M12.313 13.6499C12.2385 13.6499 12.1632 13.6664 12.0908 13.7007C12.0171 13.7341 11.9451 13.7896 11.874 13.8616V17.1352C11.9583 17.2199 12.0417 17.2851 12.1229 17.3223C12.2038 17.3583 12.2876 17.3786 12.3769 17.3786C12.5061 17.3786 12.6 17.3414 12.6606 17.266C12.7203 17.1915 12.7507 17.0725 12.7507 16.9045V14.1905C12.7507 14.0119 12.7152 13.8781 12.6407 13.7862C12.5636 13.6956 12.4544 13.6499 12.313 13.6499Z" fill="white"/>
<path d="M5.518 7.84774H6.84896V4.59231L8.39878 0H7.04581L6.222 3.1369H6.13818L5.27331 0H3.93262L5.518 4.73879V7.84774Z" fill="white"/>
<path d="M10.2024 7.99377C10.74 7.99377 11.1616 7.8528 11.469 7.57086C11.7742 7.28765 11.927 6.90115 11.927 6.40585V3.41543C11.927 2.97474 11.7708 2.61194 11.4597 2.33212C11.1464 2.05314 10.7451 1.9126 10.2557 1.9126C9.71806 1.9126 9.29007 2.04552 8.97173 2.31095C8.65423 2.57638 8.49463 2.93241 8.49463 3.38241V6.38299C8.49463 6.87533 8.64999 7.26479 8.9603 7.55689C9.2706 7.84772 9.68546 7.99377 10.2024 7.99377ZM9.71213 3.33838C9.71213 3.21265 9.75743 3.11105 9.84591 3.03147C9.93777 2.95357 10.0542 2.9159 10.199 2.9159C10.3552 2.9159 10.4818 2.95357 10.5783 3.03147C10.6744 3.11105 10.7222 3.21265 10.7222 3.33838V6.49263C10.7222 6.64715 10.6752 6.76992 10.58 6.85839C10.4856 6.94729 10.3586 6.9909 10.199 6.9909C10.0428 6.9909 9.92211 6.94856 9.83744 6.85966C9.75404 6.77288 9.71171 6.65096 9.71171 6.49221L9.71213 3.33838Z" fill="white"/>
<path d="M13.7123 7.9324C13.9345 7.9324 14.1627 7.8689 14.3977 7.74698C14.6351 7.62337 14.8625 7.4426 15.0788 7.20681V7.84816H16.2612V2.05908H15.0788V6.45328C14.9687 6.579 14.8464 6.6823 14.7152 6.76442C14.5814 6.8457 14.4713 6.88634 14.3845 6.88634C14.2736 6.88634 14.1919 6.85586 14.1441 6.79279C14.0954 6.73225 14.0679 6.63319 14.0679 6.4973V2.05908H12.8872V6.89735C12.8872 7.24237 12.9566 7.50018 13.0938 7.6712C13.2335 7.84477 13.4375 7.9324 13.7123 7.9324Z" fill="white"/>
</svg>
